<svg xmlns="http://www.w3.org/2000/svg" xmlns:xlink="http://www.w3.org/1999/xlink" viewBox="187 -1469 315.4 217.2"><defs><linearGradient id="a" x1="-.585" y1=".5" x2="1.94" y2=".5" gradientUnits="objectBoundingBox"><stop offset="0" stop-color="#ff3f74"/><stop offset=".999" stop-color="#fee140"/></linearGradient><linearGradient id="b" x1="-1.533" y1=".5" x2="2.034" y2=".5" xlink:href="#a"/><linearGradient id="c" x1="-1.37" y1=".5" x2="1.818" y2=".5" xlink:href="#a"/><linearGradient id="d" x1=".074" y1=".5" x2="5.364" y2=".5" xlink:href="#a"/><linearGradient id="e" x1="-3.377" y1=".5" x2=".842" y2=".5" xlink:href="#a"/></defs><g data-name="Groupe 401"><g data-name="Groupe 396"><path data-name="Tracé 364" d="M91.4 91.4L73.7 73.7a84.015 84.015 0 0 1 118.8 0l-17.7 17.7a58.907 58.907 0 0 0-83.4 0z" fill="url(#a)" transform="translate(187 -1469)"/></g><g data-name="Groupe 397"><path data-name="Tracé 365" d="M133.1 217.2v-25a59.066 59.066 0 0 0 59.1-59.1h25a84.16 84.16 0 0 1-84.1 84.1z" fill="url(#b)" transform="translate(187 -1469)"/></g><g data-name="Groupe 398"><path data-name="Tracé 366" d="M209.6 56.7A107.157 107.157 0 0 0 133.1 25V0a131.808 131.808 0 0 1 94.1 39z" fill="url(#c)" transform="translate(187 -1469)"/></g><g data-name="Groupe 399"><path data-name="Tracé 367" d="M25 133.1H0A131.808 131.808 0 0 1 39 39l17.7 17.7A107.1 107.1 0 0 0 25 133.1z" fill="url(#d)" transform="translate(187 -1469)"/></g><g data-name="Groupe 400"><path data-name="Tracé 368" d="M315.4 133.1h-25a156.285 156.285 0 0 0-46.1-111.2L262 4.3a181.108 181.108 0 0 1 53.4 128.8z" fill="url(#e)" transform="translate(187 -1469)"/></g></g></svg>