<svg xmlns="http://www.w3.org/2000/svg" xmlns:xlink="http://www.w3.org/1999/xlink" viewBox="755 -1432.213 278.435 72.113"><defs><linearGradient id="a" x1=".527" y1=".501" x2="5.582" y2=".501" gradientUnits="objectBoundingBox"><stop offset="0" stop-color="#ff3f74"/><stop offset=".999" stop-color="#fee140"/></linearGradient><linearGradient id="b" x1="-1.45" y1=".5" x2="10.425" y2=".5" xlink:href="#a"/><linearGradient id="c" x1="-1.679" y1=".5" x2="6.002" y2=".5" xlink:href="#a"/><linearGradient id="d" x1="-2.881" y1=".5" x2="4.785" y2=".5" xlink:href="#a"/><linearGradient id="e" x1="-3.887" y1=".5" x2="3.405" y2=".5" xlink:href="#a"/><linearGradient id="f" x1="-8.444" y1=".5" x2="3.432" y2=".5" xlink:href="#a"/><linearGradient id="g" x1="-5.887" y1=".5" x2="1.406" y2=".5" xlink:href="#a"/><linearGradient id="h" x1="-36.483" y1=".498" x2=".555" y2=".498" xlink:href="#a"/><linearGradient id="i" x1="-9.212" y1=".5" x2=".14" y2=".5" xlink:href="#a"/></defs><g data-name="Groupe 407"><g data-name="Groupe 405"><path data-name="Tracé 371" d="M23.021 42.8c13.626 0 23.021 10.142 23.021 22.71s-9.4 22.71-23.021 22.71S0 78.079 0 65.51 9.4 42.8 23.021 42.8zm0 37.892c8.337 0 14.5-6.844 14.5-15.182.062-8.337-6.16-15.119-14.5-15.119s-14.5 6.844-14.5 15.182c.003 8.275 6.163 15.119 14.5 15.119z" transform="translate(755 -1448.383)" fill="url(#a)"/><path data-name="Tracé 372" d="M103.366 72.5a11.445 11.445 0 0 0-2.987-.311 9.139 9.139 0 0 0-7.466 4.418V95.9H84.7V65.222h7.9v3.111c1.8-2.3 5.164-3.733 8.9-3.733a18 18 0 0 1 2.8.249z" transform="translate(723 -1456.619)" fill="url(#b)"/><path data-name="Tracé 373" d="M151.1 89.613a16.284 16.284 0 0 1-13.875 6.906c-9.457 0-16.426-7.093-16.426-15.928 0-8.9 7.155-15.991 16.488-15.991a16.531 16.531 0 0 1 12.88 6.1l-5.786 5.1a8.773 8.773 0 0 0-7.093-3.671 8.222 8.222 0 0 0-8.275 8.4 8.105 8.105 0 0 0 8.462 8.338 8.972 8.972 0 0 0 7.342-4.044z" transform="translate(709.362 -1456.619)" fill="url(#c)"/><path data-name="Tracé 374" d="M187.813 87.661H179.6V42.8h8.213v16.426a13.8 13.8 0 0 1 18.977 2.053c1.991 2.427 3.173 5.475 3.173 10.764v15.618h-8.213v-16.24c0-3.049-.684-4.6-1.8-5.724a6.517 6.517 0 0 0-4.6-1.68 9.952 9.952 0 0 0-7.466 3.8v19.844z" transform="translate(687.147 -1448.383)" fill="url(#d)"/><path data-name="Tracé 375" d="M270.319 95.9h-7.9v-2.492a12.681 12.681 0 0 1-8.524 3.111 15.41 15.41 0 0 1-11.573-5.164 16.417 16.417 0 0 1-3.92-10.764c0-9.022 6.72-15.991 15.057-15.991a13.746 13.746 0 0 1 8.96 3.111v-2.489h7.9zm-8.213-19.91a9.31 9.31 0 0 0-7.591-3.8c-4.791 0-7.9 3.982-7.9 8.4a8.017 8.017 0 0 0 8.089 8.337 8.96 8.96 0 0 0 7.4-3.8v-9.141z" transform="translate(664.933 -1456.619)" fill="url(#e)"/><path data-name="Tracé 376" d="M323.6 72.5a11.446 11.446 0 0 0-2.987-.311 9.139 9.139 0 0 0-7.466 4.418V95.9H305V65.222h7.9v3.111c1.8-2.3 5.164-3.733 8.9-3.733a18 18 0 0 1 2.8.249z" transform="translate(639.771 -1456.619)" fill="url(#f)"/><path data-name="Tracé 377" d="M365.017 87.661v-2.489a12.681 12.681 0 0 1-8.524 3.111 15.41 15.41 0 0 1-11.573-5.164A16.418 16.418 0 0 1 341 72.355c0-9.022 6.72-15.991 15.057-15.991a13.414 13.414 0 0 1 8.649 2.862V42.8h8.213v44.861h-7.9zm-.373-19.91a9.31 9.31 0 0 0-7.591-3.8c-4.791 0-7.9 3.982-7.9 8.4a8.017 8.017 0 0 0 8.089 8.338 8.96 8.96 0 0 0 7.4-3.8V67.75z" transform="translate(626.171 -1448.383)" fill="url(#g)"/></g><g data-name="Groupe 406"><path data-name="Rectangle 35" fill="url(#h)" d="M0 0h6.284v6.284H0z" transform="translate(1008.547 -1432.213)"/><path data-name="Tracé 378" d="M427.037 2.489a13.887 13.887 0 0 0-8.4-2.489v6.222a6.6 6.6 0 0 1 5.351 2.364 7.573 7.573 0 0 1 1.555 4.729 7.7 7.7 0 0 1-1.555 4.729 6.587 6.587 0 0 1-5.475 2.364h-4.729v-9.271H407.5V26.63h10.515c3.858 0 6.72-.809 9.084-2.551a13.613 13.613 0 0 0-.062-21.59z" transform="translate(601.047 -1432.213)" fill="url(#i)"/></g></g></svg>